<svg width="50" height="41" viewBox="0 0 50 41" fill="none" xmlns="http://www.w3.org/2000/svg">
<g clip-path="url(#clip0_1_1934)">
<path d="M24.38 29.04C19.32 29.04 15.2 24.92 15.2 19.86C15.2 14.8 19.32 10.7 24.38 10.7C29.44 10.7 33.54 14.82 33.54 19.86C33.54 24.9 29.42 29.04 24.38 29.04ZM24.38 12.86C20.52 12.86 17.36 16 17.36 19.88C17.36 23.74 20.5 26.9 24.38 26.9C28.24 26.9 31.4 23.76 31.4 19.88C31.38 16 28.24 12.86 24.38 12.86Z" fill="black"/>
<path d="M32.68 30.3C32.62 30.3 32.56 30.3 32.5 30.28C32.12 30.22 31.4 29.96 31 28.74C30.78 28.1 30.86 27.46 31.22 27C31.56 26.54 32.14 26.26 32.8 26.26C33.68 26.26 34.32 26.58 34.64 27.16C34.96 27.74 34.86 28.46 34.38 29.2C33.74 30.12 33.1 30.3 32.68 30.3ZM32.02 28.42C32.18 28.88 32.42 29.2 32.64 29.22C32.88 29.26 33.18 29.02 33.46 28.6C33.7 28.22 33.78 27.88 33.68 27.68C33.56 27.48 33.24 27.34 32.78 27.34C32.78 27.34 32.78 27.34 32.76 27.34C32.44 27.34 32.2 27.44 32.06 27.62C31.94 27.82 31.9 28.1 32.02 28.42Z" fill="black"/>
</g>
<defs>
<clipPath id="clip0_1_1934">
<rect width="20" height="20" fill="white" transform="translate(15 10.5)"/>
</clipPath>
</defs>
</svg>
